<?xml version="1.0" standalone="no"?>
<!DOCTYPE svg PUBLIC "-//W3C//DTD SVG 20010904//EN"
 "http://www.w3.org/TR/2001/REC-SVG-20010904/DTD/svg10.dtd">
<svg version="1.0" xmlns="http://www.w3.org/2000/svg"
 width="512.000000pt" height="512.000000pt" viewBox="0 0 512.000000 512.000000"
 preserveAspectRatio="xMidYMid meet">

<g transform="translate(0.000000,512.000000) scale(0.100000,-0.100000)"
fill="#000000" stroke="none">
<path d="M34 3866 l-34 -34 0 -116 c0 -424 143 -906 382 -1289 195 -314 499
-618 818 -821 194 -123 510 -257 746 -315 214 -54 324 -65 614 -65 290 0 400
11 614 65 236 58 552 192 746 315 319 203 623 507 818 821 239 383 382 865
382 1289 l0 116 -34 34 -34 34 -2492 0 -2492 0 -34 -34z m621 -278 c11 -117
52 -306 90 -419 189 -548 609 -982 1145 -1182 360 -134 764 -156 1145 -60 315
78 602 238 842 466 177 170 303 341 404 551 100 209 165 435 184 644 l7 72
204 0 204 0 -5 -27 c-2 -16 -7 -59 -10 -98 -14 -170 -74 -417 -146 -597 -311
-781 -1000 -1326 -1839 -1455 -158 -24 -482 -24 -640 0 -757 116 -1401 576
-1742 1243 -132 257 -223 560 -243 809 -3 39 -8 82 -10 98 l-4 27 203 0 204 0
7 -72z m3563 0 c-53 -466 -319 -907 -711 -1179 -497 -344 -1130 -393 -1672
-129 -512 249 -870 751 -933 1308 l-8 72 1666 0 1666 0 -8 -72z"/>
<path d="M1652 3304 c-37 -15 -204 -204 -233 -262 -19 -38 -20 -49 -10 -82 27
-90 127 -120 196 -58 40 34 170 187 198 230 21 33 22 68 3 111 -24 57 -96 86
-154 61z"/>
<path d="M3406 3312 c-84 -11 -132 -108 -88 -180 30 -50 176 -218 208 -241 64
-44 150 -18 180 56 24 56 5 97 -99 219 -51 60 -100 114 -108 121 -23 19 -61
29 -93 25z"/>
<path d="M2111 2977 c-19 -7 -42 -23 -53 -37 -28 -39 -102 -251 -103 -295 -1
-105 122 -161 200 -92 31 27 115 253 115 310 0 86 -78 142 -159 114z"/>
<path d="M2927 2975 c-21 -7 -40 -15 -41 -17 -26 -35 -36 -60 -36 -93 0 -58
83 -284 115 -312 78 -69 202 -12 199 92 -1 37 -59 216 -90 277 -27 53 -87 74
-147 53z"/>
</g>
</svg>
